<?xml version="1.0"?>
<svg xmlns="http://www.w3.org/2000/svg" xmlns:xlink="http://www.w3.org/1999/xlink" xmlns:svgjs="http://svgjs.com/svgjs" version="1.1" width="512" height="512" x="0" y="0" viewBox="0 0 512 512" style="enable-background:new 0 0 512 512" xml:space="preserve" class=""><g><linearGradient xmlns="http://www.w3.org/2000/svg" id="SVGID_1_" gradientUnits="userSpaceOnUse" x1="4.264" x2="507.736" y1="256" y2="256"><stop stop-opacity="0.31" stop-color="#ffea00" offset="0"/><stop stop-opacity="0.44" stop-color="#ffea00" offset="1"/></linearGradient><g xmlns="http://www.w3.org/2000/svg"><path d="m180.252.001c-100.63.534-151.151 173.599-170.006 262.559-18.855 88.961.847 271.458 147.096 247.249 23.64-3.913 29.158-4.715 48.645-14.497 34.685-17.411 75.734-29.661 112.83-33.359 15.211-1.516 34.445-6.538 44.624-8.368 81.626-14.679 164.928-93.76 139.709-176.622-18.939-62.228-74.428-87.278-129.998-83.834-30.518 1.891-62.997-16.011-69.51-35.788-21.214-64.417-45.612-157.752-123.39-157.34z" fill="url(#SVGID_1_)" data-original="url(#SVGID_1_)" style=""/><g fill="#6583fe"><path d="m126.006 456.656h-3v-3c0-2.762-2.238-5-5-5s-5 2.238-5 5v3h-3c-2.762 0-5 2.238-5 5s2.238 5 5 5h3v3c0 2.762 2.238 5 5 5s5-2.238 5-5v-3h3c2.762 0 5-2.238 5-5s-2.238-5-5-5z" fill="#ffdd00" data-original="#6583fe" style="" class=""/><path d="m166.719 442.656h-3v-3c0-2.762-2.238-5-5-5s-5 2.238-5 5v3h-3c-2.762 0-5 2.238-5 5s2.238 5 5 5h3v3c0 2.762 2.238 5 5 5s5-2.238 5-5v-3h3c2.762 0 5-2.238 5-5s-2.239-5-5-5z" fill="#ffdd00" data-original="#6583fe" style="" class=""/><path d="m202.979 70.191h-3v-3c0-2.762-2.238-5-5-5s-5 2.238-5 5v3h-3c-2.762 0-5 2.238-5 5s2.238 5 5 5h3v3c0 2.762 2.238 5 5 5s5-2.238 5-5v-3h3c2.762 0 5-2.238 5-5s-2.239-5-5-5z" fill="#ffdd00" data-original="#6583fe" style="" class=""/><path d="m166.719 62c-1.279 0-2.56-.488-3.535-1.465l-4.465-4.464-4.465 4.464c-1.951 1.953-5.119 1.953-7.07 0-1.953-1.952-1.953-5.118 0-7.07l8-8c1.951-1.953 5.119-1.953 7.07 0l8 8c1.953 1.952 1.953 5.118 0 7.07-.976.977-2.256 1.465-3.535 1.465z" fill="#ffdd00" data-original="#6583fe" style="" class=""/><path d="m385.419 63c-1.279 0-2.56-.488-3.535-1.465l-4.465-4.464-4.465 4.464c-1.951 1.953-5.119 1.953-7.07 0-1.953-1.952-1.953-5.118 0-7.07l8-8c1.951-1.953 5.119-1.953 7.07 0l8 8c1.953 1.952 1.953 5.118 0 7.07-.975.977-2.256 1.465-3.535 1.465z" fill="#ffdd00" data-original="#6583fe" style="" class=""/></g><g><g><path d="m481.99 391.95v25.21c0 5.52-4.47 10-10 10h-431.98c-5.53 0-10-4.48-10-10v-25.21c0-5.52 4.47-10 10-10h136.005c1.451 0 2.831.63 3.78 1.728l12.875 14.872h126.66l12.875-14.872c.95-1.097 2.329-1.728 3.78-1.728h136.005c5.53 0 10 4.48 10 10z" fill="#ffc300" opacity=".1" data-original="#2626bc" style="" class=""/><path d="m452.044 378.634h-392.088v-249.734c0-9.505 7.705-17.21 17.21-17.21h357.669c9.505 0 17.21 7.705 17.21 17.21z" fill="#ffdd00" data-original="#6583fe" style="" class=""/><path d="m481.99 364.95v25.21c0 5.52-4.47 10-10 10h-431.98c-5.53 0-10-4.48-10-10v-25.21c0-5.52 4.47-10 10-10h136.005c1.451 0 2.831.63 3.78 1.728l12.875 14.872h126.66l12.875-14.872c.95-1.097 2.329-1.728 3.78-1.728h136.005c5.53 0 10 4.48 10 10z" fill="#ffffff" data-original="#ffffff" style="" class=""/><path d="m428.83 141.54v184.44c0 2.76-2.24 5-5 5h-335.66c-2.76 0-5-2.24-5-5v-184.44c0-2.76 2.24-5 5-5h335.66c2.76 0 5 2.24 5 5z" fill="#ffffff" data-original="#ffffff" style="" class=""/><path d="m428.83 141.54v184.44c0 2.76-2.24 5-5 5h-190.77l15.55-11.66v-12.54l16.53-13.11 18.23-1.14 35.91-12.54 13.39-2.28v17.67l36.19 5.13.57-12.54h17.67l23.93-9.11v-26.79l-19.37 8.54-9.69-17.09-7.98 5.13 10.83 16.81-9.12 5.41-9.69-9.11-5.13-15.96-22.8-15.39-5.69 6.27 23.93 21.09-7.41 10.26-10.83-12.55-15.95-13.67-16.7 11.73-10.09 7.07-9.11 21.09-19.96 6.27-4.11-2.35-7.85-4.49 2.28-15.67-2.28-8.83 3.99-9.12 23.23 2.85v-15.25l-6.99-6.98v-12.92h14.92l19.56-19.56v-11.4l-18.61-18.61 8.85-8.86v-17.62l2.62-2.62h121.95c2.76 0 5 2.24 5 5z" fill="#ffdd00" data-original="#6583fe" style="" class=""/><path d="m305.427 253.535-10.087 7.078-9.113 21.09-19.952 6.266-4.112-2.351 5.112-24.509-12.968-4.479 3.992-9.121 23.226 2.846z" fill="#ffdd00" data-original="#6583fe" style="" class=""/><path d="m423.83 335.98h-335.66c-5.514 0-10-4.486-10-10v-184.44c0-5.514 4.486-10 10-10h335.66c5.514 0 10 4.486 10 10v184.44c0 5.514-4.486 10-10 10zm0-194.445-335.66.005v184.44h335.66z" fill="#ffc300" data-original="#2626bc" style="" class=""/><g><g><g><g><path d="m160.979 188.607h-49.52c-2.762 0-5-2.239-5-5s2.238-5 5-5h49.52c2.762 0 5 2.239 5 5s-2.239 5-5 5z" fill="#ffc300" data-original="#2626bc" style="" class=""/></g><g><path d="m178.979 266.109h-67.52c-2.762 0-5-2.239-5-5s2.238-5 5-5h67.52c2.762 0 5 2.239 5 5s-2.239 5-5 5z" fill="#ffc300" data-original="#2626bc" style="" class=""/></g></g><g><g><path d="m205.979 283.612h-94.52c-2.762 0-5-2.239-5-5s2.238-5 5-5h94.52c2.762 0 5 2.239 5 5s-2.239 5-5 5z" fill="#ffc300" data-original="#2626bc" style="" class=""/></g><g><path d="m205.979 301.115h-94.52c-2.762 0-5-2.239-5-5s2.238-5 5-5h94.52c2.762 0 5 2.239 5 5s-2.239 5-5 5z" fill="#ffc300" data-original="#2626bc" style="" class=""/></g></g><g fill="#2626bc"><circle cx="113.006" cy="165.556" r="5" fill="#ffc300" data-original="#2626bc" style="" class=""/><circle cx="129.256" cy="165.556" r="5" fill="#ffc300" data-original="#2626bc" style="" class=""/></g></g></g></g><g><circle cx="370.805" cy="129.927" fill="#ffffff" r="42.256" data-original="#ffffff" style="" class=""/><g fill="#2626bc"><path d="m471.99 349.95h-14.946v-221.051c0-12.247-9.963-22.21-22.21-22.21h-22.905c-8.127-14.325-23.51-24.019-41.123-24.019-17.614 0-32.997 9.693-41.124 24.019h-39.381c-2.762 0-5 2.238-5 5s2.238 5 5 5h35.149c-1.229 4.203-1.901 8.642-1.901 13.237 0 26.057 21.199 47.256 47.257 47.256 26.057 0 47.256-21.199 47.256-47.256 0-4.595-.672-9.034-1.901-13.237h18.673c6.732 0 12.21 5.478 12.21 12.21v221.051h-111.06c-2.905 0-5.661 1.26-7.56 3.455l-11.38 13.145h-122.09l-11.378-13.143c-1.9-2.197-4.656-3.457-7.562-3.457h-64.382c-2.762 0-5 2.238-5 5s2.238 5 5 5h64.381l12.875 14.872c.95 1.097 2.329 1.728 3.78 1.728h126.66c1.451 0 2.83-.631 3.78-1.728l12.874-14.872h136.008c2.757 0 5 2.243 5 5v25.21c0 2.757-2.243 5-5 5h-431.98c-2.757 0-5-2.243-5-5v-25.21c0-2.757 2.243-5 5-5h41.023c2.762 0 5-2.238 5-5s-2.238-5-5-5h-16.077v-221.051c0-6.732 5.478-12.21 12.21-12.21h182.533c2.762 0 5-2.238 5-5s-2.238-5-5-5h-182.533c-12.247 0-22.21 9.963-22.21 22.21v221.051h-14.946c-8.271 0-15 6.729-15 15v25.21c0 8.271 6.729 15 15 15h431.98c8.271 0 15-6.729 15-15v-25.21c0-8.271-6.728-15-15-15zm-101.184-182.767c-20.544 0-37.257-16.713-37.257-37.256s16.713-37.256 37.257-37.256c20.543 0 37.256 16.713 37.256 37.256s-16.713 37.256-37.256 37.256z" fill="#ffc300" data-original="#2626bc" style="" class=""/><path d="m387.419 124.12c0-9.161-7.453-16.613-16.613-16.613s-16.613 7.453-16.613 16.613c0 4.518 1.818 8.615 4.755 11.613-2.936 2.998-4.755 7.095-4.755 11.613 0 2.761 2.238 5 5 5s5-2.239 5-5c0-3.646 2.967-6.613 6.613-6.613s6.613 2.967 6.613 6.613c0 2.761 2.238 5 5 5s5-2.239 5-5c0-4.518-1.818-8.615-4.755-11.613 2.936-2.998 4.755-7.095 4.755-11.613zm-16.614-6.613c3.646 0 6.613 2.967 6.613 6.613s-2.967 6.613-6.613 6.613-6.613-2.967-6.613-6.613 2.967-6.613 6.613-6.613z" fill="#ffc300" data-original="#2626bc" style="" class=""/></g></g><path d="m234 234.081h-120.994c-2.761 0-5-2.239-5-5v-17.051c0-2.761 2.239-5 5-5h120.994c2.761 0 5 2.239 5 5v17.051c0 2.762-2.239 5-5 5z" fill="#ffdd00" data-original="#6583fe" style="" class=""/></g></g></g></svg>
