<?xml version="1.0"?>
<svg xmlns="http://www.w3.org/2000/svg" xmlns:xlink="http://www.w3.org/1999/xlink" xmlns:svgjs="http://svgjs.com/svgjs" version="1.1" width="512" height="512" x="0" y="0" viewBox="0 0 512 512" style="enable-background:new 0 0 512 512" xml:space="preserve" class=""><g><linearGradient xmlns="http://www.w3.org/2000/svg" id="SVGID_1_" gradientTransform="matrix(1 0 0 -1 0 513.276)" gradientUnits="userSpaceOnUse" x1="12.034" x2="499.966" y1="257.275" y2="257.275"><stop stop-opacity="0.27" stop-color="#ffea00" offset="0"/><stop stop-opacity="0.3" stop-color="#ffea00" offset="1"/></linearGradient><g xmlns="http://www.w3.org/2000/svg"><g><path d="m286.6 4.9c-94.4 27.7-75.4 93.6-86 166.5-13.2 91.1-70.1 44.4-135.5 93.5-113.1 85-30.9 272.6 109.5 244.1 74.6-15.1 89.8-70.1 120.2-128.8 39.3-76 104.6-55.3 163.1-104.9 118.6-100.5-37.5-309.8-171.3-270.4z" fill="url(#SVGID_1_)" data-original="url(#SVGID_1_)" style=""/></g><g><g><g fill="#00c" opacity=".1"><path d="m431.9 355.1h-16.1v-12.3c0-8.3-6.7-15-15-15h-30.5v-12.9c0-.1 0-.2 0-.3 20.3-2.4 36-19.7 36-40.6s-15.6-38.1-35.8-40.6c0-.1 0-.2 0-.3v-10.4c0-8.3-6.7-15-15-15h-94.5v-16.3c0-.1 0-.1 0-.2 36.2-2.6 64.9-32.7 64.9-69.6 0-38.6-31.3-69.8-69.8-69.8-38.6 0-69.8 31.3-69.8 69.8 0 36.9 28.6 67.1 64.9 69.6v.2 16.3h-94.5c-8.3 0-15 6.7-15 15v10.4.3c-20.3 2.4-36 19.7-36 40.6s15.7 38.1 35.9 40.6v.3 12.9h-30.2c-8.3 0-15 6.7-15 15v12.3h-16.3c-2.8 0-5 2.2-5 5v78.5c0 2.8 2.2 5 5 5h16.2v20.2c0 8.3 6.7 15 15 15h289.5c8.3 0 15-6.7 15-15v-20.2h16.1c2.8 0 5-2.2 5-5v-78.5c0-2.8-2.2-5-5-5zm-280.5-40.5c18.6-2.3 33.4-17 35.6-35.6h.4 36.4c2.8 0 5-2.2 5-5s-2.2-5-5-5h-36.4c-.1 0-.3 0-.4 0-2.2-18.6-17-33.3-35.5-35.6 0-.1 0-.2 0-.3v-10.4c0-2.8 2.2-5 5-5h198.9c2.8 0 5 2.2 5 5v10.4.3c-18.6 2.2-33.4 17-35.7 35.6-.1 0-.1 0-.2 0h-36.4c-2.8 0-5 2.2-5 5s2.2 5 5 5h36.4.2c2.3 18.6 17 33.3 35.5 35.6v.3 12.9h-30.2c-8.3 0-15 6.7-15 15v12.3h-16.3c-2.8 0-5 2.2-5 5v78.5c0 2.8 2.2 5 5 5h16.3v25.2h-118v-22c0-1.2-.4-2.3-1.1-3.1h17.4c2.8 0 5-2.2 5-5v-78.5c0-2.8-2.2-5-5-5h-16.3v-12.3c0-8.3-6.7-15-15-15h-30.5v-12.9c0-.2-.1-.3-.1-.4zm-45.1 149.2v-20.2h16.2c2.8 0 5-2.2 5-5v-78.5c0-2.8-2.2-5-5-5h-16.2v-12.3c0-2.8 2.2-5 5-5h70.7c2.8 0 5 2.2 5 5v12.3h-16.2c-2.8 0-5 2.2-5 5v78.5c0 2.8 2.2 5 5 5h17.4c-.7.9-1.1 1.9-1.1 3.1v22h-75.7c-2.9.1-5.1-2.2-5.1-4.9zm299.5 0c0 2.8-2.2 5-5 5h-75.7v-25.2h16.1c2.8 0 5-2.2 5-5v-78.5c0-2.8-2.2-5-5-5h-16.1v-12.3c0-2.8 2.2-5 5-5h70.7c2.8 0 5 2.2 5 5v12.3h-16.3c-2.8 0-5 2.2-5 5v78.5c0 2.8 2.2 5 5 5h16.3z" fill="#ffc300" data-original="#0000cc" style="" class=""/><path d="m234.7 300.3c1.3 0 2.6-.5 3.5-1.5l42.6-42.6c2-2 2-5.1 0-7.1s-5.1-2-7.1 0l-42.6 42.6c-2 2-2 5.1 0 7.1 1 1 2.3 1.5 3.6 1.5z" fill="#ffc300" data-original="#0000cc" style="" class=""/></g><g><g><ellipse cx="256" cy="97.6" fill="#ffffff" rx="69.8" ry="69.8" data-original="#ffffff" style="" class=""/><g><path d="m286.9 120.8h-4.9v20.7c0 2.1-1.7 3.9-3.9 3.9h-19.4v22c-.9 0-1.8.1-2.8.1-14.3 0-27.7-4.3-38.8-11.8v-67.4c0-16.1 13-29.1 29.1-29.1h23.3c6.9 0 12.4 5.6 12.4 12.4v22.5l6.2 24.9c.4.9-.3 1.8-1.2 1.8z" fill="#ffffff" data-original="#ffffff" style="" class=""/><path d="m292 57.1h-47.4c-15.1 0-27.3 12.2-27.3 27.3v48.8c14 0 19.6-12 19.6-12-10.9-.5-15.2-16.9-8.1-21.3 6.3-3.9 10.6 2.7 10.6 2.8.1 0 8-3.8 10.3-12.7h19.5c14.2 0 25.6-11.5 25.6-25.6v-4.5c0-1.6-1.3-2.8-2.8-2.8z" fill="#ffdd00" data-original="#6583fe" style="" class=""/><g><path d="m256 172.4c-14.9 0-29.2-4.4-41.5-12.6-1.4-.9-2.2-2.5-2.2-4.2v-71.2c0-17.8 14.5-32.3 32.3-32.3h47.4c4.3 0 7.8 3.5 7.8 7.8v4.5c0 9.9-4.8 19.1-12.7 24.9v4.4l6.1 24.3c.5 1.9.1 3.9-1.2 5.5-1.2 1.5-3 2.4-4.9 2.5v15.7c0 4.9-4 8.9-8.9 8.9h-14.4v17c0 2.7-2.1 4.9-4.8 5-1-.2-2-.2-3-.2zm-33.8-19.5c9.5 5.8 20.3 9.1 31.5 9.4v-17c0-2.8 2.2-5 5-5h18.3v-19.6c0-2.8 2.2-5 5-5h.3l-5.1-20.4c-.1-.4-.2-.8-.2-1.2v-7.7c0-1.8.9-3.4 2.5-4.3 6.3-3.7 10.2-10.5 10.2-17.8v-2.3h-45.2c-12.3 0-22.3 10-22.3 22.3z" fill="#ffc300" data-original="#0000cc" style="" class=""/></g></g></g><g><g><g><g><ellipse cx="146.5" cy="250" fill="#ffdd00" rx="40.9" ry="40.9" data-original="#6583fe" style="" class=""/><path d="m163.1 243.4c0-9.2-7.5-16.6-16.6-16.6-9.2 0-16.6 7.5-16.6 16.6 0 4.5 1.8 8.6 4.8 11.6-2.9 3-4.8 7.1-4.8 11.6 0 2.8 2.2 5 5 5s5-2.2 5-5c0-3.6 3-6.6 6.6-6.6s6.6 3 6.6 6.6c0 2.8 2.2 5 5 5s5-2.2 5-5c0-4.5-1.8-8.6-4.8-11.6 3-3 4.8-7.1 4.8-11.6zm-16.6-6.6c3.6 0 6.6 3 6.6 6.6s-3 6.6-6.6 6.6-6.6-3-6.6-6.6c-.1-3.7 2.9-6.6 6.6-6.6z" fill="#ffc300" data-original="#0000cc" style="" class=""/></g></g><g><g><ellipse cx="365.4" cy="250" fill="#ffdd00" rx="40.9" ry="40.9" data-original="#6583fe" style="" class=""/><path d="m382 243.4c0-9.2-7.5-16.6-16.6-16.6-9.2 0-16.6 7.5-16.6 16.6 0 4.5 1.8 8.6 4.8 11.6-2.9 3-4.8 7.1-4.8 11.6 0 2.8 2.2 5 5 5s5-2.2 5-5c0-3.6 3-6.6 6.6-6.6s6.6 3 6.6 6.6c0 2.8 2.2 5 5 5s5-2.2 5-5c0-4.5-1.8-8.6-4.8-11.6 3-3 4.8-7.1 4.8-11.6zm-16.6-6.6c3.6 0 6.6 3 6.6 6.6s-3 6.6-6.6 6.6-6.6-3-6.6-6.6c0-3.7 2.9-6.6 6.6-6.6z" fill="#ffc300" data-original="#0000cc" style="" class=""/></g></g></g><g><g><path d="m75.1 414.6v-78.5c0-2.8 2.2-5 5-5h42.5c2.8 0 5 2.2 5 5v78.5c0 2.8-2.2 5-5 5h-42.5c-2.8 0-5-2.2-5-5z" fill="#ffffff" data-original="#ffffff" style="" class=""/><g><path d="m96.3 383.6v-16.5c0-2.8 2.2-5 5-5s5 2.2 5 5v16.5c0 2.8-2.2 5-5 5s-5-2.2-5-5z" fill="#ffc300" data-original="#0000cc" style="" class=""/></g></g><g><path d="m165.7 414.6v-78.5c0-2.8 2.2-5 5-5h42.5c2.8 0 5 2.2 5 5v78.5c0 2.8-2.2 5-5 5h-42.5c-2.7 0-5-2.2-5-5z" fill="#ffffff" data-original="#ffffff" style="" class=""/><g><path d="m187 383.6v-16.5c0-2.8 2.2-5 5-5s5 2.2 5 5v16.5c0 2.8-2.2 5-5 5s-5-2.2-5-5z" fill="#ffc300" data-original="#0000cc" style="" class=""/></g></g></g><g><g><path d="m293.8 414.6v-78.5c0-2.8 2.2-5 5-5h42.5c2.8 0 5 2.2 5 5v78.5c0 2.8-2.2 5-5 5h-42.5c-2.7 0-5-2.2-5-5z" fill="#ffffff" data-original="#ffffff" style="" class=""/><g><path d="m315 383.6v-16.5c0-2.8 2.2-5 5-5s5 2.2 5 5v16.5c0 2.8-2.2 5-5 5-2.7 0-5-2.2-5-5z" fill="#ffc300" data-original="#0000cc" style="" class=""/></g></g><g><path d="m384.5 414.6v-78.5c0-2.8 2.2-5 5-5h42.5c2.8 0 5 2.2 5 5v78.5c0 2.8-2.2 5-5 5h-42.5c-2.8 0-5-2.2-5-5z" fill="#ffffff" data-original="#ffffff" style="" class=""/><g><path d="m405.7 383.6v-16.5c0-2.8 2.2-5 5-5s5 2.2 5 5v16.5c0 2.8-2.2 5-5 5s-5-2.2-5-5z" fill="#ffc300" data-original="#0000cc" style="" class=""/></g></g></g></g><g fill="#00c"><path d="m431.9 326.1h-16.1v-7.3c0-8.3-6.7-15-15-15h-30.5v-8.2c23-2.5 41-22 41-45.6 0-6-1.1-11.8-3.4-17.3-1-2.6-4-3.8-6.5-2.7-2.6 1-3.8 4-2.7 6.5 1.8 4.3 2.6 8.9 2.6 13.5 0 19.8-16.1 35.9-35.9 35.9-19.6 0-35.5-15.7-35.9-35.2 0-.2.1-.4.1-.7s0-.4-.1-.7c.4-19.5 16.3-35.2 35.9-35.2 4.3 0 8.5.7 12.4 2.2 2.6 1 5.5-.4 6.4-3s-.4-5.5-3-6.4c-3.5-1.3-7.1-2.1-10.8-2.5v-5.7c0-8.3-6.7-15-15-15h-94.4v-11.5c38.9-2.6 69.8-35.1 69.8-74.7 0-41.3-33.6-74.8-74.8-74.8s-74.8 33.6-74.8 74.8c0 39.6 30.9 72.1 69.8 74.7v11.5h-94.5c-8.3 0-15 6.7-15 15v5.7c-23 2.5-41 22-41 45.6s17.9 43.1 40.9 45.6v8.2h-30.2c-8.3 0-15 6.7-15 15v7.3h-16.1c-5.5 0-10 4.5-10 10v78.5c0 5.5 4.5 10 10 10h16.2v15.2c0 8.3 6.7 15 15 15h289.5c8.3 0 15-6.7 15-15v-15.2h16.1c5.5 0 10-4.5 10-10v-78.5c0-5.5-4.5-10-10-10zm-240.7-228.5c0-35.8 29.1-64.8 64.8-64.8s64.8 29.1 64.8 64.8c0 35.8-29.1 64.8-64.8 64.8s-64.8-29.1-64.8-64.8zm-80.6 152.4c0-19.8 16.1-35.9 35.9-35.9s35.9 16.1 35.9 35.9-16.1 35.9-35.9 35.9-35.9-16.1-35.9-35.9zm40.9 45.6c21.3-2.3 38.3-19.3 40.6-40.6h31.7c2.8 0 5-2.2 5-5s-2.2-5-5-5h-31.7c-2.3-21.3-19.3-38.3-40.5-40.6v-5.7c0-2.8 2.2-5 5-5h198.9c2.8 0 5 2.2 5 5v5.7c-21.4 2.3-38.4 19.3-40.7 40.6h-31.6c-2.8 0-5 2.2-5 5s2.2 5 5 5h31.6c2.3 21.3 19.3 38.3 40.5 40.6v8.2h-30.2c-8.3 0-15 6.7-15 15v7.3h-16.3c-5.5 0-10 4.5-10 10v78.5c0 5.5 4.5 10 10 10h16.3v20.2h-118.1v-20.2h16.2c5.5 0 10-4.5 10-10v-24.1c0-2.8-2.2-5-5-5s-5 2.2-5 5v24.1h-42.5v-78.5h42.5v21.4c0 2.8 2.2 5 5 5s5-2.2 5-5v-21.4c0-5.5-4.5-10-10-10h-16.2v-7.3c0-8.3-6.7-15-15-15h-30.5zm168.7 119c-.1 0-.1 0 0 0h-21.3v-78.5h42.5v78.5zm-240.1-78.5h42.5v78.5h-21.2-21.2zm26.2 103.7v-15.2h16.2c5.5 0 10-4.5 10-10v-78.5c0-5.5-4.5-10-10-10h-16.2v-7.3c0-2.8 2.2-5 5-5h70.7c2.8 0 5 2.2 5 5v7.3h-16.2c-5.5 0-10 4.5-10 10v78.5c0 5.5 4.5 10 10 10h16.2v20.2h-75.7c-2.8 0-5-2.3-5-5zm299.5 0c0 2.8-2.2 5-5 5h-75.7v-20.2h16.1c5.5 0 10-4.5 10-10v-78.5c0-5.5-4.5-10-10-10h-16.1v-7.3c0-2.8 2.2-5 5-5h70.7c2.8 0 5 2.2 5 5v7.3h-16.3c-5.5 0-10 4.5-10 10v78.5c0 5.5 4.5 10 10 10h16.3zm26.1-25.2h-21.1s0 0 0 0h-21.3v-78.5h42.5z" fill="#ffc300" data-original="#0000cc" style="" class=""/><path d="m234.7 276.3c1.3 0 2.6-.5 3.5-1.5l42.6-42.6c2-2 2-5.1 0-7.1s-5.1-2-7.1 0l-42.6 42.6c-2 2-2 5.1 0 7.1 1 1 2.3 1.5 3.6 1.5z" fill="#ffc300" data-original="#0000cc" style="" class=""/></g></g></g><path d="m113.6 173h-3v-3c0-2.8-2.2-5-5-5s-5 2.2-5 5v3h-3c-2.8 0-5 2.2-5 5s2.2 5 5 5h3v3c0 2.8 2.2 5 5 5s5-2.2 5-5v-3h3c2.8 0 5-2.2 5-5 0-2.7-2.3-5-5-5z" fill="#ffdd00" data-original="#6583fe" style="" class=""/><path d="m413.7 175.7h-3v-3c0-2.8-2.2-5-5-5s-5 2.2-5 5v3h-3c-2.8 0-5 2.2-5 5s2.2 5 5 5h3v3c0 2.8 2.2 5 5 5s5-2.2 5-5v-3h3c2.8 0 5-2.2 5-5s-2.2-5-5-5z" fill="#ffdd00" data-original="#6583fe" style="" class=""/><g><path d="m137.8 142.2c-1.3 0-2.6-.5-3.5-1.5l-4.5-4.5-4.5 4.5c-2 2-5.1 2-7.1 0s-2-5.1 0-7.1l8-8c2-2 5.1-2 7.1 0l8 8c2 2 2 5.1 0 7.1-.9 1-2.2 1.5-3.5 1.5z" fill="#ffdd00" data-original="#6583fe" style="" class=""/></g><g><path d="m440.7 224.7c-1.3 0-2.6-.5-3.5-1.5l-4.5-4.5-4.5 4.5c-2 2-5.1 2-7.1 0s-2-5.1 0-7.1l8-8c2-2 5.1-2 7.1 0l8 8c2 2 2 5.1 0 7.1-.9 1-2.2 1.5-3.5 1.5z" fill="#ffdd00" data-original="#6583fe" style="" class=""/></g><g><path d="m282.3 313.8c-1.3 0-2.6-.5-3.5-1.5l-4.5-4.5-4.5 4.5c-2 2-5.1 2-7.1 0s-2-5.1 0-7.1l8-8c2-2 5.1-2 7.1 0l8 8c2 2 2 5.1 0 7.1-.9 1-2.2 1.5-3.5 1.5z" fill="#ffdd00" data-original="#6583fe" style="" class=""/></g></g></g></g></svg>
